<svg id="Capa_1" data-name="Capa 1" xmlns="http://www.w3.org/2000/svg" viewBox="0 0 30.63 35.01"><defs><style>.cls-1{fill:#3070e2;}</style></defs><title>Iconos</title><path class="cls-1" d="M28.17,6.25a2.48,2.48,0,0,0-2.46,2.5v7.51h-.59V4.38a2.46,2.46,0,1,0-4.92,0V16.26h-.59V2.5a2.46,2.46,0,1,0-4.92,0V16.26H14.1v-10a2.46,2.46,0,1,0-4.92,0V19.7l-3.8-4.21a3.2,3.2,0,0,0-4.27-.83c-.64.47-2.49,2.39.73,7.45L9.42,32.45A5.83,5.83,0,0,0,14.54,35h9.24a6.92,6.92,0,0,0,6.85-7V8.75A2.48,2.48,0,0,0,28.17,6.25ZM29.38,28a5.67,5.67,0,0,1-5.6,5.74H14.54a4.57,4.57,0,0,1-4.09-2L2.87,21.4C.8,18.14,1,16.27,1.85,15.67a1.45,1.45,0,0,1,.85-.26,2.36,2.36,0,0,1,1.74.89l4.9,5.44,0,0s0,0,.06.05a.35.35,0,0,0,.12.07l.07,0a.64.64,0,0,0,.2,0h0c.28,0,6.67-.29,7.31,4.82a.63.63,0,0,0,.62.55h.08a.63.63,0,0,0,.54-.7c-.58-4.63-5.13-5.88-7.95-5.93V6.25a1.21,1.21,0,1,1,2.42,0V16.88a.63.63,0,0,0,.63.63h1.83a.63.63,0,0,0,.63-.63V2.5a1.21,1.21,0,1,1,2.42,0V16.88a.63.63,0,0,0,.63.63h1.83a.63.63,0,0,0,.63-.63V4.38a1.21,1.21,0,1,1,2.42,0v12.5a.63.63,0,0,0,.63.63h1.83a.63.63,0,0,0,.63-.63V8.75a1.21,1.21,0,1,1,2.42,0V28Z"/></svg>