<svg id="Capa_1" data-name="Capa 1" xmlns="http://www.w3.org/2000/svg" viewBox="0 0 27.95 38.87"><defs><style>.cls-1{fill:#3070e2;}</style></defs><title>Iconos</title><path class="cls-1" d="M17,.13a.43.43,0,0,1,.4.44V2h3.11A.45.45,0,0,1,21,2.4V4h6.41a.45.45,0,0,1,.45.45V38.3a.45.45,0,0,1-.45.45H.57a.45.45,0,0,1-.44-.45V4.42A.45.45,0,0,1,.57,4H7V2.4A.45.45,0,0,1,7.45,2h3.1V.57A.45.45,0,0,1,11,.13h6ZM16.52,1H11.45V2.4a.45.45,0,0,1-.45.45H7.9V6H20.07V2.85H17a.45.45,0,0,1-.45-.45ZM26.93,4.87H21v1.6a.45.45,0,0,1-.45.45H7.45A.45.45,0,0,1,7,6.47V4.87H1v33H26.93Z"/><path class="cls-1" d="M27.38,38.87H.57A.58.58,0,0,1,0,38.3V4.42a.57.57,0,0,1,.57-.57H6.88V2.4a.56.56,0,0,1,.57-.57h3V.58A.57.57,0,0,1,11,0h6a.58.58,0,0,1,.52.58V1.83h3a.57.57,0,0,1,.57.57V3.85h6.29a.56.56,0,0,1,.57.57V38.3A.57.57,0,0,1,27.38,38.87ZM.57,4.1a.32.32,0,0,0-.32.32V38.3a.32.32,0,0,0,.32.32H27.38a.32.32,0,0,0,.32-.32V4.42a.32.32,0,0,0-.32-.32H20.84V2.4a.32.32,0,0,0-.32-.32H17.29V.58A.33.33,0,0,0,17,.25H11a.32.32,0,0,0-.32.33v1.5H7.45a.32.32,0,0,0-.32.32V4.1ZM27.05,38H.9V4.74H7.13V6.47a.32.32,0,0,0,.32.32H20.52a.32.32,0,0,0,.32-.32V4.74h6.21Zm-25.9-.25H26.8V5H21.09V6.47a.57.57,0,0,1-.57.57H7.45a.56.56,0,0,1-.57-.57V5H1.15Zm19-31.57H7.78V2.72H11a.32.32,0,0,0,.33-.32V.9h5.31V2.4a.32.32,0,0,0,.33.32h3.22ZM8,5.9H19.94V3H17a.57.57,0,0,1-.58-.57V1.15H11.58V2.4A.57.57,0,0,1,11,3H8Z"/><path class="cls-1" d="M17,11.8a.45.45,0,1,1,0,.9H4.8a.45.45,0,0,1-.46-.44.46.46,0,0,1,.45-.46H17Z"/><path class="cls-1" d="M16.93,12.83H4.79a.58.58,0,0,1-.57-.57.56.56,0,0,1,.56-.58H17a.57.57,0,0,1,.4.18.58.58,0,0,1,.14.42A.57.57,0,0,1,16.93,12.83ZM4.8,12.58H16.93a.32.32,0,0,0,.32-.31.31.31,0,0,0-.08-.24.32.32,0,0,0-.22-.1H4.8a.32.32,0,0,0-.33.32.33.33,0,0,0,.32.33Z"/><path class="cls-1" d="M17,18.87a.47.47,0,0,1,.41.5.44.44,0,0,1-.49.4H4.8a.45.45,0,0,1-.46-.44.46.46,0,0,1,.45-.46H17Z"/><path class="cls-1" d="M17,19.9H4.8a.64.64,0,0,1-.41-.16.58.58,0,0,1,.39-1H17a.61.61,0,0,1,.39.21.57.57,0,0,1,.12.42.55.55,0,0,1-.2.39A.59.59,0,0,1,17,19.9Zm0-.25a.33.33,0,0,0,.25-.08.3.3,0,0,0,.12-.22A.34.34,0,0,0,17,19H4.8a.33.33,0,0,0-.24.1.32.32,0,0,0-.09.23.3.3,0,0,0,.1.23.31.31,0,0,0,.22.09H16.91Z"/><path class="cls-1" d="M17,25.93a.46.46,0,0,1,.43.47.45.45,0,0,1-.47.43H4.8a.45.45,0,0,1-.46-.44.46.46,0,0,1,.45-.46H17Z"/><path class="cls-1" d="M16.93,27H4.8a.57.57,0,0,1-.58-.57.56.56,0,0,1,.56-.58H17a.58.58,0,0,1,.4.19.56.56,0,0,1,.14.41.57.57,0,0,1-.18.4A.58.58,0,0,1,16.93,27Zm0-.25h0a.32.32,0,0,0,.32-.31.31.31,0,0,0-.08-.24.32.32,0,0,0-.22-.1H4.8a.33.33,0,0,0,0,.65H16.91Z"/><path class="cls-1" d="M17,33a.45.45,0,0,1,.41.49.44.44,0,0,1-.49.4H4.8a.45.45,0,1,1,0-.89H17Z"/><path class="cls-1" d="M17,34H4.8a.7.7,0,0,1-.41-.16.57.57,0,0,1-.17-.41.58.58,0,0,1,.56-.58H17a.56.56,0,0,1,.38.21.54.54,0,0,1,.13.42.55.55,0,0,1-.2.39A.54.54,0,0,1,17,34Zm0-.25a.37.37,0,0,0,.25-.07.35.35,0,0,0,.12-.22.33.33,0,0,0-.08-.24.3.3,0,0,0-.22-.12H4.8a.33.33,0,0,0-.24.1.32.32,0,0,0-.09.23.29.29,0,0,0,.1.23.31.31,0,0,0,.22.09H16.91Z"/><path class="cls-1" d="M23.32,9.12a.46.46,0,0,0-.4.23L21,12.64l-.57-1a.44.44,0,0,0-.61-.17.45.45,0,0,0-.18.61h0l1,1.67a.44.44,0,0,0,.61.16.41.41,0,0,0,.16-.16l2.29-4a.45.45,0,0,0-.16-.62.43.43,0,0,0-.22-.06Z"/><path class="cls-1" d="M21,14.11a.56.56,0,0,1-.5-.29l-1-1.67a.58.58,0,0,1,.21-.79.57.57,0,0,1,.44-.06.61.61,0,0,1,.35.28l.46.81,1.79-3.1a.59.59,0,0,1,.5-.3h0a.56.56,0,0,1,.55.44.59.59,0,0,1-.06.43l-2.29,4a.53.53,0,0,1-.21.21A.6.6,0,0,1,21,14.11Zm-1-2.58a.3.3,0,0,0-.15.05.32.32,0,0,0-.13.44l1,1.68a.33.33,0,0,0,.57,0l2.28-4a.29.29,0,0,0,0-.24.31.31,0,0,0-.15-.2.34.34,0,0,0-.17,0,.34.34,0,0,0-.28.17l-2,3.48-.68-1.19A.32.32,0,0,0,20.05,11.53Z"/><path class="cls-1" d="M23.23,16.46a.48.48,0,0,0-.31.23L21,20l-.58-1a.45.45,0,0,0-.61-.17.45.45,0,0,0-.17.62h0c.32.56.64,1.12,1,1.67a.44.44,0,0,0,.61.16.41.41,0,0,0,.16-.16q1.14-2,2.29-4a.45.45,0,0,0-.16-.61A.42.42,0,0,0,23.23,16.46Z"/><path class="cls-1" d="M21,21.44l-.14,0a.58.58,0,0,1-.35-.26l-1-1.68a.55.55,0,0,1-.06-.43.56.56,0,0,1,.27-.35.57.57,0,0,1,.79.21l.47.81c.6-1,1.19-2.06,1.78-3.1a.61.61,0,0,1,.4-.28h0a.57.57,0,0,1,.4.07.61.61,0,0,1,.26.35.61.61,0,0,1-.07.44l-2.28,3.95a.53.53,0,0,1-.21.21A.6.6,0,0,1,21,21.44Zm-1-2.57a.29.29,0,0,0-.16,0,.39.39,0,0,0-.16.2.32.32,0,0,0,0,.25l1,1.67a.37.37,0,0,0,.2.15.32.32,0,0,0,.25,0L21.3,21l2.29-4a.29.29,0,0,0,0-.24.3.3,0,0,0-.14-.2.32.32,0,0,0-.23-.05.34.34,0,0,0-.22.17L21.14,20l-.11.19L20.34,19a.3.3,0,0,0-.19-.16Z"/><path class="cls-1" d="M23.23,23.8a.5.5,0,0,0-.31.22L21,27.31l-.58-1a.45.45,0,0,0-.61-.17.45.45,0,0,0-.17.62h0l1,1.67a.45.45,0,0,0,.61.16.41.41,0,0,0,.16-.16q1.14-2,2.29-4a.45.45,0,0,0-.16-.61A.42.42,0,0,0,23.23,23.8Z"/><path class="cls-1" d="M21,28.78l-.14,0a.58.58,0,0,1-.35-.26c-.18-.32-.36-.62-.54-.93l-.43-.75a.55.55,0,0,1-.06-.43.56.56,0,0,1,.27-.35.57.57,0,0,1,.79.21l.47.81,1.72-3,.06-.12a.61.61,0,0,1,.4-.28h0a.57.57,0,0,1,.4.07.58.58,0,0,1,.26.35.61.61,0,0,1-.07.44l-2.28,3.95a.53.53,0,0,1-.21.21A.6.6,0,0,1,21,28.78Zm-1-2.57a.29.29,0,0,0-.16,0,.39.39,0,0,0-.16.2.32.32,0,0,0,0,.25l.43.74c.18.31.36.62.53.93a.37.37,0,0,0,.2.15.32.32,0,0,0,.25,0l.11-.11,2.29-4a.31.31,0,0,0,0-.25.35.35,0,0,0-.14-.2.35.35,0,0,0-.22,0,.33.33,0,0,0-.23.17L23,24.2c-.6,1.06-1.21,2.12-1.82,3.17l-.11.19-.69-1.19a.32.32,0,0,0-.19-.15Z"/><path class="cls-1" d="M23.32,31.13a.46.46,0,0,0-.4.23L21,34.65l-.57-1a.45.45,0,0,0-.61-.17.45.45,0,0,0-.18.61h0l1,1.67a.44.44,0,0,0,.61.17.44.44,0,0,0,.16-.17l2.29-4a.43.43,0,0,0-.16-.61.36.36,0,0,0-.22-.07Z"/><path class="cls-1" d="M21,36.12a.57.57,0,0,1-.5-.28l-1-1.68a.59.59,0,0,1-.06-.45.58.58,0,0,1,.71-.39.59.59,0,0,1,.35.27l.46.81,1.79-3.1a.57.57,0,0,1,.5-.29h0a.6.6,0,0,1,.29.08.57.57,0,0,1,.2.78l-2.29,4a.53.53,0,0,1-.21.21A.58.58,0,0,1,21,36.12Zm-1-2.57a.28.28,0,0,0-.15,0,.33.33,0,0,0-.16.19.36.36,0,0,0,0,.25l1,1.68a.33.33,0,0,0,.45.12.34.34,0,0,0,.12-.12l2.28-4a.33.33,0,0,0-.11-.45.32.32,0,0,0-.16,0h0a.33.33,0,0,0-.28.16L21,34.9l-.68-1.19a.31.31,0,0,0-.2-.15Z"/></svg>