<svg id="Capa_1" data-name="Capa 1" xmlns="http://www.w3.org/2000/svg" viewBox="0 0 19.31 17.83"><defs><style>.cls-1{fill:#3070e2;}</style></defs><title>Iconos</title><path class="cls-1" d="M19.31,13v3.71a1.09,1.09,0,0,1-.32.79,1.07,1.07,0,0,1-.79.33H1.11a1.07,1.07,0,0,1-.79-.33A1.09,1.09,0,0,1,0,16.71V13a1.1,1.1,0,0,1,.32-.79,1.07,1.07,0,0,1,.79-.33h5.4l1.57,1.58a2.25,2.25,0,0,0,3.16,0l1.57-1.58H18.2a1.07,1.07,0,0,1,.79.33A1.1,1.1,0,0,1,19.31,13ZM15.54,6.39a.68.68,0,0,1-.16.82l-5.2,5.2a.71.71,0,0,1-.52.22.73.73,0,0,1-.53-.22L3.94,7.21a.67.67,0,0,1-.17-.82.69.69,0,0,1,.69-.45h3V.74A.7.7,0,0,1,7.65.22.7.7,0,0,1,8.17,0h3a.69.69,0,0,1,.52.22.71.71,0,0,1,.23.52v5.2h3A.69.69,0,0,1,15.54,6.39Zm-.9,9.73a.74.74,0,0,0,.22-.52.75.75,0,0,0-.75-.74.7.7,0,0,0-.52.22.69.69,0,0,0-.22.52.75.75,0,0,0,.74.74A.73.73,0,0,0,14.64,16.12Zm3,0a.74.74,0,0,0,.22-.52.73.73,0,0,0-.22-.52.74.74,0,0,0-1.05,0,.69.69,0,0,0-.22.52.74.74,0,0,0,1.27.52Z"/></svg>