<svg id="Capa_1" data-name="Capa 1" xmlns="http://www.w3.org/2000/svg" viewBox="0 0 32.35 28.74"><defs><style>.cls-1{fill:#3070e2;}</style></defs><title>Iconos</title><path class="cls-1" d="M19.71.25a6.16,6.16,0,0,1,4.36,10.51L10.75,24.07a6.15,6.15,0,0,1-8.7-8.7L15.35,2.05A6.18,6.18,0,0,1,19.71.25Zm0,.71a5.43,5.43,0,0,0-3.85,1.61L9.46,9l7.68,7.68,6.41-6.4A5.45,5.45,0,0,0,19.71,1Zm-.23,2.56a2.74,2.74,0,0,1,1.77.84.35.35,0,0,1,0,.51.36.36,0,0,1-.51,0h0A1.81,1.81,0,0,0,19,4.27a3.76,3.76,0,0,0-1.86,1.12l-1,1a.36.36,0,0,1-.51.06.36.36,0,0,1,0-.51l0,0,1-1a4.4,4.4,0,0,1,2.24-1.32,3.16,3.16,0,0,1,.61,0ZM9,9.48l-6.4,6.39a5.43,5.43,0,0,0,7.68,7.69l6.39-6.41Zm16.62,6A6.52,6.52,0,1,1,19.07,22,6.52,6.52,0,0,1,25.58,15.46Zm0,.72a5.79,5.79,0,0,0-4.34,9.62l8.17-8.17A5.77,5.77,0,0,0,25.58,16.18Zm4.34,2-8.17,8.17a5.79,5.79,0,0,0,8.17-8.17Z"/><path class="cls-1" d="M25.58,28.74A6.77,6.77,0,1,1,32.35,22,6.77,6.77,0,0,1,25.58,28.74Zm0-13A6.27,6.27,0,1,0,31.85,22,6.27,6.27,0,0,0,25.58,15.71Zm0,12.31a6,6,0,0,1-4-1.51l-.2-.18,8.55-8.55.17.2a6,6,0,0,1-4.52,10ZM22.12,26.3a5.49,5.49,0,0,0,3.46,1.22,5.52,5.52,0,0,0,4.32-9Zm-.89-.14-.18-.2a6,6,0,0,1,8.52-8.52l.2.18Zm4.35-9.73a5.54,5.54,0,0,0-4.33,9L29,17.64A5.56,5.56,0,0,0,25.58,16.43ZM6.4,26.12A6.41,6.41,0,0,1,1.87,15.19L15.18,1.87a6.41,6.41,0,1,1,9.06,9.07L10.93,24.24A6.39,6.39,0,0,1,6.4,26.12ZM19.71.5a5.84,5.84,0,0,0-4.18,1.73L2.23,15.54a5.9,5.9,0,0,0,8.34,8.35L23.89,10.58a5.9,5.9,0,0,0,0-8.35A5.84,5.84,0,0,0,19.71.5ZM6.4,25.4a5.69,5.69,0,0,1-4-9.7L9,9.13l8,8-6.57,6.58A5.68,5.68,0,0,1,6.4,25.4ZM9,9.84,2.74,16.05a5.18,5.18,0,0,0,7.32,7.33l6.22-6.23ZM17.14,17l-8-8,6.58-6.57a5.68,5.68,0,1,1,8,8ZM9.81,9l7.33,7.33,6.23-6.23A5.18,5.18,0,1,0,16,2.75Zm6-2.17a.57.57,0,0,1-.39-.14.62.62,0,0,1-.1-.86l.1-.09,1-1a4.56,4.56,0,0,1,2.37-1.38,3,3,0,0,1,.67,0h0a3,3,0,0,1,1.93.91.66.66,0,0,1,.17.44.58.58,0,0,1-.18.43.62.62,0,0,1-.87,0,1.58,1.58,0,0,0-1.5-.53,3.56,3.56,0,0,0-1.72,1l-1,1A.57.57,0,0,1,15.85,6.79Zm3.47-3a2.58,2.58,0,0,0-.4,0A4.12,4.12,0,0,0,16.81,5l-1,1c-.07.09-.07.16,0,.2a.11.11,0,0,0,.16,0l1.05-1A4,4,0,0,1,19,4a2.05,2.05,0,0,1,1.95.67.1.1,0,0,0,.16,0,.1.1,0,0,0,0-.08.11.11,0,0,0,0-.08,2.48,2.48,0,0,0-1.6-.76h-.15Z"/></svg>