<svg id="Capa_1" data-name="Capa 1" xmlns="http://www.w3.org/2000/svg" viewBox="0 0 25.58 36.9"><defs><style>.cls-1{fill:#3070e2;}</style></defs><title>Iconos</title><path class="cls-1" d="M24.93,0h-2a.66.66,0,0,0-.66.66.66.66,0,0,0,.66.65h1.35v9.51a8.27,8.27,0,0,1-16.54,0V1.31H9.16A.65.65,0,0,0,9.81.66.65.65,0,0,0,9.16,0H7.08a.66.66,0,0,0-.66.66V10.82a9.59,9.59,0,0,0,8.93,9.56V30A5.59,5.59,0,0,1,4.18,30V27.87a3.53,3.53,0,1,0-1.31,0V30a6.9,6.9,0,0,0,13.79,0V20.38a9.58,9.58,0,0,0,8.92-9.56V.66A.65.65,0,0,0,24.93,0Z"/></svg>