<svg id="Capa_1" data-name="Capa 1" xmlns="http://www.w3.org/2000/svg" viewBox="0 0 32.62 32.62"><defs><style>.cls-1{fill:#3070e2;}</style></defs><title>Iconos</title><path class="cls-1" d="M16.31,32.62A16.31,16.31,0,1,1,32.62,16.31,16.34,16.34,0,0,1,16.31,32.62Zm0-31.52A15.21,15.21,0,1,0,31.52,16.31,15.22,15.22,0,0,0,16.31,1.1Z"/><path class="cls-1" d="M16.31,29.9A13.59,13.59,0,1,1,29.9,16.31,13.6,13.6,0,0,1,16.31,29.9Zm0-26.11A12.52,12.52,0,1,0,28.83,16.31,12.54,12.54,0,0,0,16.31,3.79Z"/><path class="cls-1" d="M21.5,21a3.89,3.89,0,0,1-1.1-.18,3.79,3.79,0,0,1-2.28-3.64c.07-1.85,1.62-3.61,3.09-3.61a1,1,0,0,1,.29,0A2.11,2.11,0,0,1,23,14.8a1.87,1.87,0,0,1,.15,1.29,2,2,0,0,0,0,.81,2.14,2.14,0,0,0,.44.81A1.8,1.8,0,0,1,24.08,19a2.2,2.2,0,0,1-.7,1.36A2.73,2.73,0,0,1,21.5,21Zm-.25-6.37c-.81,0-2,1.29-2,2.58a2.57,2.57,0,0,0,1.55,2.54,2.19,2.19,0,0,0,.73.11,1.57,1.57,0,0,0,1.14-.4,1,1,0,0,0,.37-.66.74.74,0,0,0-.25-.56,3.26,3.26,0,0,1-.63-1.18,3,3,0,0,1,0-1.25c0-.29.08-.4,0-.62a1.17,1.17,0,0,0-.74-.59S21.28,14.65,21.25,14.65Z"/><path class="cls-1" d="M19.07,16.2a.78.78,0,0,1-.25-.07l-1-.52a.55.55,0,0,1,.52-1l1,.56a.54.54,0,0,1,.22.73A.62.62,0,0,1,19.07,16.2Z"/><path class="cls-1" d="M17.71,18.93a.54.54,0,0,1-.07-1.07l.92-.19a.52.52,0,0,1,.62.45.5.5,0,0,1-.44.62l-.92.19Z"/><path class="cls-1" d="M18.78,21a.59.59,0,0,1-.41-.18.53.53,0,0,1,0-.77l.74-.7a.53.53,0,0,1,.77,0,.54.54,0,0,1,0,.78l-.73.7A.59.59,0,0,1,18.78,21Z"/><path class="cls-1" d="M21,22.09h-.08a.56.56,0,0,1-.47-.62l.14-1a.57.57,0,0,1,.63-.48.58.58,0,0,1,.48.63l-.15.95A.53.53,0,0,1,21,22.09Z"/><path class="cls-1" d="M23.12,21.76a.65.65,0,0,1-.48-.26l-.47-.84a.54.54,0,0,1,.18-.74.54.54,0,0,1,.74.18l.48.85a.55.55,0,0,1-.19.74A.77.77,0,0,1,23.12,21.76Z"/><path class="cls-1" d="M24.34,20.4a.43.43,0,0,1-.22,0l-.81-.4a.55.55,0,0,1,.48-1l.81.41a.59.59,0,0,1,.25.73A.62.62,0,0,1,24.34,20.4Z"/><path class="cls-1" d="M23.57,18.67a.55.55,0,0,1-.52-.37.54.54,0,0,1,.33-.7l1-.33a.54.54,0,0,1,.7.33.53.53,0,0,1-.34.7l-1,.33A.3.3,0,0,1,23.57,18.67Z"/><path class="cls-1" d="M22.87,15.61a.49.49,0,0,1-.52-.4.56.56,0,0,1,.41-.67l.81-.22a.55.55,0,1,1,.25,1.07l-.81.19Z"/><path class="cls-1" d="M22.2,14.91a.38.38,0,0,1-.18,0,.55.55,0,0,1-.33-.7l.4-1.11a.57.57,0,0,1,.7-.33.55.55,0,0,1,.33.7l-.4,1.1A.54.54,0,0,1,22.2,14.91Z"/><path class="cls-1" d="M20.21,14.77a.61.61,0,0,1-.51-.34l-.37-.95a.54.54,0,0,1,.3-.7.56.56,0,0,1,.7.29l.36,1a.54.54,0,0,1-.29.7A.27.27,0,0,1,20.21,14.77Z"/><path class="cls-1" d="M9.5,11.27a1.55,1.55,0,1,1,1.58-1.55A1.56,1.56,0,0,1,9.5,11.27Zm0-2a.44.44,0,1,0,.48.44A.45.45,0,0,0,9.5,9.28Z"/><path class="cls-1" d="M16.64,11.82a2.14,2.14,0,0,1-2.17-2.1,2.18,2.18,0,0,1,4.35,0A2.14,2.14,0,0,1,16.64,11.82Zm0-3.13a1,1,0,1,0,0,2.06,1,1,0,0,0,1.11-1A1.1,1.1,0,0,0,16.64,8.69Z"/><path class="cls-1" d="M13.73,26a2.54,2.54,0,0,1-2.57-2.47A2.58,2.58,0,1,1,13.73,26Zm0-3.87a1.4,1.4,0,1,0,1.48,1.4A1.44,1.44,0,0,0,13.73,22.13Z"/><path class="cls-1" d="M14,18a.69.69,0,0,1-.7-.66.67.67,0,0,1,.7-.67A.67.67,0,1,1,14,18Z"/><path class="cls-1" d="M23.68,25a.69.69,0,0,1-.7-.66.72.72,0,0,1,.7-.7.69.69,0,0,1,.7.66A.7.7,0,0,1,23.68,25Z"/><path class="cls-1" d="M20.47,24.19a.69.69,0,0,1-.7-.66.67.67,0,0,1,.7-.66.66.66,0,1,1,0,1.32Z"/><path class="cls-1" d="M7.7,20.84a.69.69,0,0,1-.7-.66.66.66,0,0,1,.7-.66.69.69,0,0,1,.7.66A.72.72,0,0,1,7.7,20.84Z"/><path class="cls-1" d="M20.91,7.88a.69.69,0,0,1-.7-.66.7.7,0,0,1,1.4,0A.66.66,0,0,1,20.91,7.88Z"/><path class="cls-1" d="M17,27.17a.69.69,0,0,1-.7-.66.67.67,0,0,1,.7-.66.66.66,0,1,1,0,1.32Z"/><path class="cls-1" d="M13.26,7.88a.69.69,0,0,1-.7-.66.67.67,0,0,1,.7-.67.7.7,0,0,1,.7.67A.72.72,0,0,1,13.26,7.88Z"/><path class="cls-1" d="M8.62,17.42a1.8,1.8,0,0,1-1.7-1.18.55.55,0,1,1,1-.37.73.73,0,0,0,1.37-.48.53.53,0,0,1,.33-.7.54.54,0,0,1,.7.33,1.79,1.79,0,0,1-1.11,2.29A2.14,2.14,0,0,1,8.62,17.42Z"/><path class="cls-1" d="M9.79,15.76a.55.55,0,0,1-.51-.37A1.73,1.73,0,0,1,9.35,14a1.71,1.71,0,0,1,1-.92,1.79,1.79,0,0,1,2.29,1.1.53.53,0,0,1-.33.7.53.53,0,0,1-.7-.33.73.73,0,0,0-1.37.48.53.53,0,0,1-.33.7Z"/><path class="cls-1" d="M25.15,11.12a.34.34,0,0,1-.19,0L24,10.75a.55.55,0,0,1,.37-1l1,.33a.54.54,0,0,1,.33.7A.65.65,0,0,1,25.15,11.12Z"/><path class="cls-1" d="M5.08,15.5a.54.54,0,0,1-.22-1l.77-.4a.55.55,0,1,1,.48,1l-.77.4C5.23,15.46,5.15,15.5,5.08,15.5Z"/></svg>