<svg id="Capa_1" data-name="Capa 1" xmlns="http://www.w3.org/2000/svg" viewBox="0 0 34.92 27.34"><defs><style>.cls-1{fill:#3070e2;}</style></defs><title>Iconos</title><path class="cls-1" d="M.68,0A.77.77,0,0,0,0,.78v25.8a.76.76,0,0,0,.76.76H34.15a.76.76,0,0,0,0-1.52H1.52V.78A.77.77,0,0,0,.78,0ZM5.27,5.32a.76.76,0,0,0-.41,1.37L16.25,15a.75.75,0,0,0,1-.09l4.08-4.42L32.06,19h-1.7a.76.76,0,0,0,0,1.52h3.81a.76.76,0,0,0,.76-.76V16a.75.75,0,0,0-.74-.77h-.1a.77.77,0,0,0-.68.77v2.14L21.72,8.9a.76.76,0,0,0-1,.08L16.6,13.42,5.76,5.47A.73.73,0,0,0,5.27,5.32Z"/></svg>