<?xml version="1.0" encoding="utf-8"?>
<!-- Generator: Adobe Illustrator 22.1.0, SVG Export Plug-In . SVG Version: 6.00 Build 0)  -->
<svg version="1.1" id="Capa_1" xmlns="http://www.w3.org/2000/svg" xmlns:xlink="http://www.w3.org/1999/xlink" x="0px" y="0px"
	 viewBox="0 0 335 82" style="enable-background:new 0 0 335 82;" xml:space="preserve">
<style type="text/css">
	.st0{fill:none;stroke:#44E6D7;stroke-width:3.9142;stroke-miterlimit:10;}
	.st1{fill:#333333;}
	.st2{fill:#44E6D7;}
	.st3{fill:none;stroke:#333333;stroke-width:3.9142;stroke-miterlimit:10;}
</style>
<g>
	<polyline class="st0" points="56.8,76.7 212.1,76.7 234.3,53.2 258.3,73.3 332.1,7.5 	"/>
	<g>
		<path class="st1" d="M8,68.2V6.7h15V12h-9.4v22h6.8v5.3h-6.8V63H23v5.3H8V68.2z"/>
		<path class="st1" d="M36.4,41.5h-3.7v26.7h-5.5V6.7h9.2c3.6,0,8.2,1.8,8.2,9.7v15.4C44.7,39.7,40,41.5,36.4,41.5z M39,15.8
			c0-2.5-1-3.5-2.6-3.5h-3.7v23.8h3.7c1.6,0,2.6-1.1,2.6-3.5V15.8z"/>
		<path class="st1" d="M48.5,68.2V6.7h5.6v61.5H48.5z"/>
		<path class="st2" d="M68,69c-5,0-9-4.2-9-10.5v-42C59,10.3,63,6,68,6s8.6,4.3,8.6,10.5v11.7h-4.8V15.4c0-2-1.3-3.8-3.5-3.8
			c-2.3,0-3.6,1.8-3.6,3.8v44.1c0,2.1,1.3,3.8,3.6,3.8c2.2,0,3.5-1.7,3.5-3.8V46.6h4.8v11.8C76.6,64.7,73,69,68,69z"/>
		<path class="st2" d="M90,69c-5,0-9.1-4.2-9.1-10.5v-42C80.8,10.3,85,6,90,6s9.1,4.3,9.1,10.5v41.9C99.1,64.7,95,69,90,69z
			 M93.6,15.4c0-2-1.4-3.8-3.6-3.8c-2.3,0-3.6,1.8-3.6,3.8v44.1c0,2.1,1.3,3.8,3.6,3.8c2.2,0,3.6-1.7,3.6-3.8V15.4z"/>
		<path class="st2" d="M119.2,68.2L111,36.4l-1.8-9.3v41.1h-5.3V6.7h5.4l7,32.1l1.7,9.5V6.7h5.3v61.5H119.2z"/>
		<path class="st2" d="M138.4,12.2v56.1h-5.5V12.2h-6V6.7H144v5.4L138.4,12.2L138.4,12.2z"/>
		<path class="st2" d="M164.4,68.7c-3.2,0-4.6-1.2-4.6-5.7V45c0-2.5-1.3-4.1-3.2-4.1h-3.3v27.2h-5.6V6.7h9.3c3.6,0,8.1,1.8,8.1,9.7
			v14.3c0,3.7-0.9,6.5-3.8,7.8c2.9,1.3,4,4.1,4,7.7v16.7c0,1.7,0.2,2.4,1.2,2.4v3.4C166.5,68.7,164.4,68.7,164.4,68.7z M159.5,15.8
			c0-2.5-1.1-3.5-2.7-3.5h-3.6v23.3h3.1c1.8,0,3.1-1.6,3.1-4.1L159.5,15.8L159.5,15.8z"/>
		<path class="st2" d="M178.9,69c-5,0-9.1-4.2-9.1-10.5v-42c0-6.2,4.2-10.5,9.1-10.5c5,0,9.1,4.3,9.1,10.5v41.9
			C188.1,64.7,183.9,69,178.9,69z M182.5,15.4c0-2-1.4-3.8-3.6-3.8c-2.3,0-3.6,1.8-3.6,3.8v44.1c0,2.1,1.3,3.8,3.6,3.8
			c2.2,0,3.6-1.7,3.6-3.8V15.4z"/>
		<path class="st2" d="M193.1,68.2V6.7h5.5v56h9.1v5.5H193.1z"/>
	</g>
	<line class="st3" x1="56.8" y1="76.7" x2="7.7" y2="76.7"/>
</g>
</svg>
